<?xml version="1.0" encoding="utf-8"?>
<!-- Generator: Adobe Illustrator 19.0.0, SVG Export Plug-In . SVG Version: 6.00 Build 0)  -->
<svg version="1.1" id="Layer_1" xmlns="http://www.w3.org/2000/svg" xmlns:xlink="http://www.w3.org/1999/xlink" x="0px" y="0px"
	 viewBox="-233.4 334 56.8 100" style="enable-background:new -233.4 334 56.8 100;" xml:space="preserve">
<path d="M-176.9,355.2c0-0.1,0-0.1,0-0.2c0,0,0,0,0-0.1c0-0.1-0.1-0.3-0.1-0.4c0,0,0,0,0-0.1c-0.1-0.1-0.1-0.2-0.2-0.3c0,0,0,0,0,0
	l-9.7-10.5v-4c0-1.7-1.2-4.1-3.4-4.4c-2.8-0.4-12.4-0.7-20.2-0.9c-4.3-0.1-8.1-0.3-9.1-0.3c-0.3,0-0.6,0-0.9,0
	c-3.4,0-4.6,2.1-4.6,4.1c0,1.3,0.2,3.8,0.3,5.1l-8.1,8.4c0,0,0,0,0,0c0,0,0,0,0,0c0,0,0,0-0.1,0.1c0,0-0.1,0.1-0.1,0.2
	c0,0,0,0,0,0.1c0,0,0,0,0,0c0,0,0,0,0,0.1c0,0.1-0.1,0.2-0.1,0.2c0,0,0,0,0,0c0,0,0,0.1,0,0.1c0,0.1,0.1,0.6,0.1,0.6l1,68.6
	c0,0.5,0.2,0.8,0.5,1.1l13.6,11c0,0,0,0,0,0c0,0,0,0,0,0c0.1,0.1,0.2,0.1,0.3,0.2c0,0,0.1,0,0.2,0.1c0.2,0.1,0.6,0.1,0.6,0.1v0
	c0,0,0.2,0,0.3,0c0,0,0,0,0,0l39-9.9c0.7-0.2,1.2-0.8,1.1-1.5L-176.9,355.2z M-181.9,353.8l-35.3,0.9l-3.3-7.9l-0.6-1.5l31.7,0.3
	L-181.9,353.8z M-220.8,354l-1.3-0.3l-1.9-0.5l2.7-0.4L-220.8,354z M-220.6,337.1c0.2,0,0.4,0,0.6,0c1.1,0.1,4.7,0.2,9.3,0.4
	c7.3,0.2,17.3,0.5,19.9,0.9c0.3,0,0.8,0.9,0.8,1.4v2.9l-31.8-0.3c-0.1-1.3-0.3-3.2-0.3-4.2C-222.1,337.6-222.2,337.1-220.6,337.1z
	 M-223.9,346.6l1.4,3.3l-5.2,0.7L-223.9,346.6z M-230.3,354.7l10.6,2.8l0.8,56.7c-1.9,1.1-3.5,2.7-4,4.4c-0.5,2-0.3,4.7-0.3,7
	l-6.1-4.9L-230.3,354.7z M-201.5,426.9c-0.4-1.1-1.8-2.1-3.9-3.3c-2.4-1.3-3.7-0.8-4.7-3.3c-0.6-1.7,1.3-3.5,0.2-5.2
	c-1.3-2-3.6-2.5-6-2l-0.6-44.3l-0.1-10.7l36.6-1l0.4,64.5L-201.5,426.9z"/>
<g>
	<path d="M-194,385.6c-4.3,1.2-8.8,0.6-11.4,5.1c-2.5,4.3,0.2,8.6-0.5,13.1c-0.7,4.1-2.9,4.3,1.7,6.5c3.6,1.7,10.5,1.2,12.8-2.5
		c1.9-3.2-0.5-6.8,1.7-10.1c1.5-2.3,4.9-3,5.7-6c1.8-6.5-7.6-8.5-11.8-5.4"/>
</g>
<g>
	<path d="M-178.6,402.9c-10.3-1.6-16.1,14.3-5.9,12.9c5.8-0.8,5.7-8.1,5.1-12.3"/>
</g>
<g>
	<path d="M-188.9,356.4c-2.5,0.4-2,2.3-2.8,3.4c-0.5,0.7-0.1,1.8-1.3,3c-1,1.1-3.2,0.7-4.3,1.7c-2.6,2.2-2.3,3.8,1.4,6
		c4.6,2.7,12.1,3.3,15.5-1.2c0,0,2.7-6.8,2.4-9.5c-0.4-2.7-3.6-4.5-3.6-4.5L-188.9,356.4z"/>
</g>
<g>
	<path d="M-226.4,374.4c1.7,4.1,5.2,12.4,9.9,10.9c1.7-0.6,2.5-5.6,4.6-6.2c3.2-0.8,6.4,3.3,8.9-0.7c1.8-3,2.3-5.2-0.2-7.2
		c-1.2-0.9-2.9-1.3-3.9-2.6c-0.8-1-0.7-4.2-1.5-4.6c-2.6-1.4-5.7,2.6-8.6,2c-4.1-0.9-8.6-4.5-9-0.7
		C-226.2,365.3-227.6,371.6-226.4,374.4z"/>
</g>
<g>
	<path d="M-232,399.6c5.2,8.8,14.6-0.6,7.8-9.2c-4.7-6-8-0.9-8.2,7.4"/>
</g>
</svg>
