<svg xmlns="http://www.w3.org/2000/svg" xmlns:xlink="http://www.w3.org/1999/xlink" version="1.1" x="0px" y="0px" viewBox="0 0 100 125" enable-background="new 0 0 100 100" xml:space="preserve"><g><path d="M54,38.8c-4.3,0-7.8-3.5-7.8-7.8s3.5-7.8,7.8-7.8s7.8,3.5,7.8,7.8S58.2,38.8,54,38.8z M54,25.5c-3,0-5.5,2.5-5.5,5.5   s2.5,5.5,5.5,5.5s5.5-2.5,5.5-5.5S57,25.5,54,25.5z"/></g><g><g><g><path d="M61.5,36.3c0.3-0.4,0.8-0.5,1.4-0.2l2.2,1.2c0.5,0.3,0.6,1,0.2,1.6s-1.1,0.7-1.6,0.3l-1.9-1.6     C61.4,37.2,61.2,36.6,61.5,36.3z"/></g></g><g><g><path d="M56.4,39.9c0.4-0.1,0.9,0.2,1.2,0.7l0.9,2.3c0.2,0.5-0.1,1.2-0.8,1.4s-1.3-0.2-1.4-0.8l-0.4-2.4     C55.6,40.5,55.9,40,56.4,39.9z"/></g></g><g><g><path d="M50.1,39.3c0.4,0.2,0.6,0.7,0.4,1.3L49.7,43c-0.2,0.5-0.9,0.8-1.5,0.5s-0.9-1-0.6-1.5l1.2-2.2     C49.2,39.4,49.7,39.2,50.1,39.3z"/></g></g><g><g><path d="M45.7,34.9c0.2,0.4,0,1-0.5,1.3L43,37.5c-0.5,0.3-1.2,0.1-1.5-0.6c-0.3-0.6,0-1.3,0.5-1.5l2.3-0.9     C44.9,34.3,45.5,34.5,45.7,34.9z"/></g></g><g><g><path d="M45.1,28.7c-0.1,0.4-0.6,0.7-1.2,0.6l-2.5-0.4c-0.6-0.1-1-0.7-0.8-1.4c0.2-0.7,0.8-1,1.4-0.8l2.3,0.9     C44.9,27.8,45.2,28.3,45.1,28.7z"/></g></g><g><g><path d="M48.7,23.6c-0.4,0.3-1,0.1-1.3-0.3l-1.6-1.9c-0.4-0.4-0.3-1.2,0.3-1.6s1.3-0.3,1.6,0.2l1.2,2.2     C49.1,22.7,49,23.3,48.7,23.6z"/></g></g><g><g><path d="M54.7,21.9c-0.5,0-0.8-0.5-0.8-1.1v-2.5c0-0.6,0.5-1,1.2-1c0.7,0.1,1.2,0.6,1.1,1.2L55.7,21     C55.6,21.6,55.2,21.9,54.7,21.9z"/></g></g><g><g><path d="M60.4,24.5c-0.3-0.3-0.3-0.9,0-1.4l1.6-1.9c0.4-0.5,1.1-0.4,1.6,0c0.5,0.5,0.5,1.2,0,1.6l-1.9,1.6     C61.3,24.8,60.7,24.9,60.4,24.5z"/></g></g><g><g><path d="M63.1,30.2c-0.1-0.5,0.3-0.9,0.9-1l2.4-0.4c0.6-0.1,1.1,0.4,1.2,1.1c0,0.7-0.4,1.3-1,1.3h-2.5     C63.6,31,63.1,30.7,63.1,30.2z"/></g></g></g><g><g><path d="M5.3,65.7c0-1.6,1.3-2.9,2.9-2.9h10.7c0.5,0,1.3-0.3,1.7-0.7l9.5-9.5c1-1,2.8-1.2,4-0.5l10.1,5.8c0.2,0.1,0.9,0.1,1.1,0    l4.2-3c1.2-0.8,3-0.7,4.1,0.1l8.9,7.2c0.4,0.3,1.3,0.7,1.9,0.7h27.8c1.6,0,2.9,1.3,2.9,2.9h-2.7l-28-0.2c-1.1,0-2.7-0.5-3.6-1.3    l-8.9-7.2c-0.1-0.1-0.7-0.1-0.8,0l-4.2,3c-1.1,0.8-2.9,0.8-4,0.2l-10.1-5.8c-0.5-0.1-0.7,0-0.8,0.1l-9.5,9.5    c-0.8,0.8-2.4,1.5-3.6,1.5H8.2L5.3,65.7z"/></g></g><path d="M27,37.7c1.9,0,3.4,2,3.4,2c0.3,0.4,0.8,0.6,1.2,0.6c0.1,0,0.2,0,0.3,0c0,0,0,0,0.4,0c1.7,0,3.1,1.4,3.1,3.1  c0,1.7-1.4,3.1-3.1,3.1c-0.9,0-1.5-0.4-1.5-0.4c-0.2-0.2-0.6-0.3-0.9-0.3s-0.6,0.1-0.8,0.2c0,0-1,0.6-2.2,0.6c-1.4,0-2.6-1-2.6-1  c-0.2-0.2-0.5-0.3-0.7-0.3c-0.3,0-0.6,0.1-0.8,0.3c0,0-0.8,0.8-1.9,0.8c-1.7,0-3.1-1.4-3.1-3.1c0-1.7,1.4-3.1,3.1-3.1  c0.7,0,1,0.1,1,0.1c0.2,0.1,0.4,0.2,0.6,0.2c0.4,0,0.7-0.2,0.9-0.5C23.4,40,25,37.7,27,37.7 M27,35.5c-2.3,0-4,1.7-4.9,2.6  C21.8,38,21.4,38,20.9,38c-2.9,0-5.3,2.4-5.3,5.3c0,2.9,2.4,5.3,5.3,5.3c1.2,0,2.2-0.5,2.8-0.9c0.7,0.4,1.9,1,3.2,1  c1.3,0,2.4-0.5,2.9-0.8c0.5,0.3,1.3,0.6,2.4,0.6c2.9,0,5.2-2.3,5.2-5.2s-2.3-5.2-5.2-5.2h-0.4C31.2,37.3,29.4,35.5,27,35.5L27,35.5z  "/><path d="M73.8,49.3c1.9,0,3.4,2,3.4,2c0.3,0.4,0.8,0.6,1.2,0.6c0.1,0,0.2,0,0.3,0c0,0,0,0,0.4,0c1.7,0,3.1,1.4,3.1,3.1  c0,1.7-1.4,3.1-3.1,3.1c-0.9,0-1.5-0.4-1.5-0.4c-0.2-0.2-0.6-0.3-0.9-0.3s-0.6,0.1-0.8,0.2c0,0-1,0.6-2.2,0.6c-1.4,0-2.6-1-2.6-1  c-0.2-0.2-0.5-0.3-0.7-0.3c-0.3,0-0.6,0.1-0.8,0.3c0,0-0.8,0.8-1.9,0.8c-1.7,0-3.1-1.4-3.1-3.1c0-1.7,1.4-3.1,3.1-3.1  c0.7,0,1,0.1,1,0.1c0.2,0.1,0.4,0.2,0.6,0.2c0.4,0,0.7-0.2,0.9-0.5C70.2,51.6,71.8,49.3,73.8,49.3 M73.8,47.2c-2.3,0-4,1.7-4.9,2.6  c-0.3-0.1-0.7-0.1-1.2-0.1c-2.9,0-5.3,2.4-5.3,5.3c0,2.9,2.4,5.3,5.3,5.3c1.2,0,2.2-0.5,2.8-0.9c0.7,0.4,1.9,1,3.2,1  c1.3,0,2.4-0.5,2.9-0.8c0.5,0.3,1.3,0.6,2.4,0.6c2.9,0,5.2-2.3,5.2-5.2s-2.3-5.2-5.2-5.2h-0.4C78,49,76.2,47.2,73.8,47.2L73.8,47.2z  "/></svg>