<?xml version="1.0" encoding="utf-8"?>
<!-- Generator: Adobe Illustrator 19.0.0, SVG Export Plug-In . SVG Version: 6.00 Build 0)  -->
<svg version="1.1" id="Layer_1" xmlns="http://www.w3.org/2000/svg" xmlns:xlink="http://www.w3.org/1999/xlink" x="0px" y="0px"
	 viewBox="-255 334 100 125" style="enable-background:new -255 334 100 125;" xml:space="preserve">
<g>
	<path d="M-201,372.8c-4.3,0-7.8-3.5-7.8-7.8s3.5-7.8,7.8-7.8s7.8,3.5,7.8,7.8S-196.8,372.8-201,372.8z M-201,359.5
		c-3,0-5.5,2.5-5.5,5.5s2.5,5.5,5.5,5.5s5.5-2.5,5.5-5.5S-198,359.5-201,359.5z"/>
</g>
<g>
	<g>
		<g>
			<path d="M-193.5,370.3c0.3-0.4,0.8-0.5,1.4-0.2l2.2,1.2c0.5,0.3,0.6,1,0.2,1.6c-0.4,0.6-1.1,0.7-1.6,0.3l-1.9-1.6
				C-193.6,371.2-193.8,370.6-193.5,370.3z"/>
		</g>
	</g>
	<g>
		<g>
			<path d="M-198.6,373.9c0.4-0.1,0.9,0.2,1.2,0.7l0.9,2.3c0.2,0.5-0.1,1.2-0.8,1.4c-0.7,0.2-1.3-0.2-1.4-0.8l-0.4-2.4
				C-199.4,374.5-199.1,374-198.6,373.9z"/>
		</g>
	</g>
	<g>
		<g>
			<path d="M-204.9,373.3c0.4,0.2,0.6,0.7,0.4,1.3l-0.8,2.4c-0.2,0.5-0.9,0.8-1.5,0.5c-0.6-0.3-0.9-1-0.6-1.5l1.2-2.2
				C-205.8,373.4-205.3,373.2-204.9,373.3z"/>
		</g>
	</g>
	<g>
		<g>
			<path d="M-209.3,368.9c0.2,0.4,0,1-0.5,1.3l-2.2,1.3c-0.5,0.3-1.2,0.1-1.5-0.6c-0.3-0.6,0-1.3,0.5-1.5l2.3-0.9
				C-210.1,368.3-209.5,368.5-209.3,368.9z"/>
		</g>
	</g>
	<g>
		<g>
			<path d="M-209.9,362.7c-0.1,0.4-0.6,0.7-1.2,0.6l-2.5-0.4c-0.6-0.1-1-0.7-0.8-1.4c0.2-0.7,0.8-1,1.4-0.8l2.3,0.9
				C-210.1,361.8-209.8,362.3-209.9,362.7z"/>
		</g>
	</g>
	<g>
		<g>
			<path d="M-206.3,357.6c-0.4,0.3-1,0.1-1.3-0.3l-1.6-1.9c-0.4-0.4-0.3-1.2,0.3-1.6c0.6-0.4,1.3-0.3,1.6,0.2l1.2,2.2
				C-205.9,356.7-206,357.3-206.3,357.6z"/>
		</g>
	</g>
	<g>
		<g>
			<path d="M-200.3,355.9c-0.5,0-0.8-0.5-0.8-1.1v-2.5c0-0.6,0.5-1,1.2-1c0.7,0.1,1.2,0.6,1.1,1.2l-0.5,2.5
				C-199.4,355.6-199.8,355.9-200.3,355.9z"/>
		</g>
	</g>
	<g>
		<g>
			<path d="M-194.6,358.5c-0.3-0.3-0.3-0.9,0-1.4l1.6-1.9c0.4-0.5,1.1-0.4,1.6,0c0.5,0.5,0.5,1.2,0,1.6l-1.9,1.6
				C-193.7,358.8-194.3,358.9-194.6,358.5z"/>
		</g>
	</g>
	<g>
		<g>
			<path d="M-191.9,364.2c-0.1-0.5,0.3-0.9,0.9-1l2.4-0.4c0.6-0.1,1.1,0.4,1.2,1.1c0,0.7-0.4,1.3-1,1.3h-2.5
				C-191.4,365-191.9,364.7-191.9,364.2z"/>
		</g>
	</g>
</g>
<g>
	<g>
		<path d="M-249.7,399.7c0-1.6,1.3-2.9,2.9-2.9h10.7c0.5,0,1.3-0.3,1.7-0.7l9.5-9.5c1-1,2.8-1.2,4-0.5l10.1,5.8
			c0.2,0.1,0.9,0.1,1.1,0l4.2-3c1.2-0.8,3-0.7,4.1,0.1l8.9,7.2c0.4,0.3,1.3,0.7,1.9,0.7h27.8c1.6,0,2.9,1.3,2.9,2.9h-2.7l-28-0.2
			c-1.1,0-2.7-0.5-3.6-1.3l-8.9-7.2c-0.1-0.1-0.7-0.1-0.8,0l-4.2,3c-1.1,0.8-2.9,0.8-4,0.2l-10.1-5.8c-0.5-0.1-0.7,0-0.8,0.1
			l-9.5,9.5c-0.8,0.8-2.4,1.5-3.6,1.5h-10.7L-249.7,399.7z"/>
	</g>
</g>
<path d="M-228,371.7c1.9,0,3.4,2,3.4,2c0.3,0.4,0.8,0.6,1.2,0.6c0.1,0,0.2,0,0.3,0c0,0,0,0,0.4,0c1.7,0,3.1,1.4,3.1,3.1
	c0,1.7-1.4,3.1-3.1,3.1c-0.9,0-1.5-0.4-1.5-0.4c-0.2-0.2-0.6-0.3-0.9-0.3c-0.3,0-0.6,0.1-0.8,0.2c0,0-1,0.6-2.2,0.6
	c-1.4,0-2.6-1-2.6-1c-0.2-0.2-0.5-0.3-0.7-0.3c-0.3,0-0.6,0.1-0.8,0.3c0,0-0.8,0.8-1.9,0.8c-1.7,0-3.1-1.4-3.1-3.1
	c0-1.7,1.4-3.1,3.1-3.1c0.7,0,1,0.1,1,0.1c0.2,0.1,0.4,0.2,0.6,0.2c0.4,0,0.7-0.2,0.9-0.5C-231.6,374-230,371.7-228,371.7
	 M-228,369.5c-2.3,0-4,1.7-4.9,2.6c-0.3-0.1-0.7-0.1-1.2-0.1c-2.9,0-5.3,2.4-5.3,5.3c0,2.9,2.4,5.3,5.3,5.3c1.2,0,2.2-0.5,2.8-0.9
	c0.7,0.4,1.9,1,3.2,1c1.3,0,2.4-0.5,2.9-0.8c0.5,0.3,1.3,0.6,2.4,0.6c2.9,0,5.2-2.3,5.2-5.2c0-2.9-2.3-5.2-5.2-5.2h-0.4
	C-223.8,371.3-225.6,369.5-228,369.5L-228,369.5z"/>
<path d="M-181.2,383.3c1.9,0,3.4,2,3.4,2c0.3,0.4,0.8,0.6,1.2,0.6c0.1,0,0.2,0,0.3,0c0,0,0,0,0.4,0c1.7,0,3.1,1.4,3.1,3.1
	s-1.4,3.1-3.1,3.1c-0.9,0-1.5-0.4-1.5-0.4c-0.2-0.2-0.6-0.3-0.9-0.3c-0.3,0-0.6,0.1-0.8,0.2c0,0-1,0.6-2.2,0.6c-1.4,0-2.6-1-2.6-1
	c-0.2-0.2-0.5-0.3-0.7-0.3c-0.3,0-0.6,0.1-0.8,0.3c0,0-0.8,0.8-1.9,0.8c-1.7,0-3.1-1.4-3.1-3.1c0-1.7,1.4-3.1,3.1-3.1
	c0.7,0,1,0.1,1,0.1c0.2,0.1,0.4,0.2,0.6,0.2c0.4,0,0.7-0.2,0.9-0.5C-184.8,385.6-183.2,383.3-181.2,383.3 M-181.2,381.2
	c-2.3,0-4,1.7-4.9,2.6c-0.3-0.1-0.7-0.1-1.2-0.1c-2.9,0-5.3,2.4-5.3,5.3s2.4,5.3,5.3,5.3c1.2,0,2.2-0.5,2.8-0.9c0.7,0.4,1.9,1,3.2,1
	c1.3,0,2.4-0.5,2.9-0.8c0.5,0.3,1.3,0.6,2.4,0.6c2.9,0,5.2-2.3,5.2-5.2s-2.3-5.2-5.2-5.2h-0.4C-177,383-178.8,381.2-181.2,381.2
	L-181.2,381.2z"/>
</svg>
