<svg xmlns="http://www.w3.org/2000/svg" xmlns:xlink="http://www.w3.org/1999/xlink" version="1.1" x="0px" y="0px" viewBox="0 0 100 125" enable-background="new 0 0 100 100" xml:space="preserve"><g><circle cx="50" cy="69.287" r="6.428"/><path d="M50,56.43c-3.55,0-6.429-2.879-6.429-6.429c0-3.547,2.879-6.429,6.429-6.429c3.55,0,6.429,2.882,6.429,6.429   C56.429,53.551,53.55,56.43,50,56.43z"/><path d="M30.713,56.43c-3.55,0-6.428-2.879-6.428-6.429c0-3.547,2.878-6.429,6.428-6.429c3.551,0,6.429,2.882,6.429,6.429   C37.142,53.551,34.264,56.43,30.713,56.43z"/><path d="M69.285,56.43c-3.551,0-6.429-2.879-6.429-6.429c0-3.547,2.879-6.429,6.429-6.429c3.551,0,6.429,2.882,6.429,6.429   C75.714,53.551,72.836,56.43,69.285,56.43z"/><path d="M50,37.145c-3.55,0-6.429-2.879-6.429-6.429c0-3.547,2.879-6.429,6.429-6.429c3.55,0,6.429,2.882,6.429,6.429   C56.429,34.267,53.55,37.145,50,37.145z"/><path d="M30.713,37.145c-3.55,0-6.428-2.879-6.428-6.429c0-3.547,2.878-6.429,6.428-6.429c3.551,0,6.429,2.882,6.429,6.429   C37.142,34.266,34.264,37.145,30.713,37.145z"/><path d="M69.285,37.145c-3.55,0-6.429-2.878-6.429-6.429c0-3.547,2.879-6.429,6.429-6.429c3.551,0,6.43,2.882,6.43,6.429   C75.715,34.267,72.836,37.145,69.285,37.145z"/><path d="M11.428,37.145C7.878,37.145,5,34.266,5,30.716c0-3.547,2.879-6.429,6.429-6.429s6.429,2.882,6.429,6.429   C17.857,34.266,14.978,37.145,11.428,37.145z"/><path d="M88.571,37.145c-3.55,0-6.429-2.878-6.429-6.429c0-3.547,2.879-6.429,6.429-6.429S95,27.169,95,30.716   C95,34.267,92.121,37.145,88.571,37.145z"/></g><text x="0" y="115" fill="#000000" font-size="5px" font-weight="bold" font-family="'Helvetica Neue', Helvetica, Arial-Unicode, Arial, Sans-serif">Created by TukTuk Design</text><text x="0" y="120" fill="#000000" font-size="5px" font-weight="bold" font-family="'Helvetica Neue', Helvetica, Arial-Unicode, Arial, Sans-serif">from the Noun Project</text></svg>