<svg xmlns="http://www.w3.org/2000/svg" xmlns:xlink="http://www.w3.org/1999/xlink" version="1.1" x="0px" y="0px" viewBox="0 0 100 125" enable-background="new 0 0 100 100" xml:space="preserve"><path d="M62.052,50.447c0-3.411,2.763-6.177,6.174-6.177s6.175,2.766,6.175,6.177c0,3.408-2.764,6.174-6.175,6.174  S62.052,53.855,62.052,50.447z"/><path d="M25.699,50.447c0-3.411,2.763-6.177,6.175-6.177c3.411,0,6.179,2.766,6.179,6.177c0,3.408-2.768,6.174-6.179,6.174  C28.462,56.621,25.699,53.855,25.699,50.447z"/><path d="M7.521,50.447c0-3.411,2.768-6.177,6.18-6.177c3.411,0,6.174,2.766,6.174,6.177c0,3.408-2.763,6.174-6.174,6.174  C10.289,56.621,7.521,53.855,7.521,50.447z"/><path d="M80.225,50.447c0-3.411,2.77-6.177,6.175-6.177c3.411,0,6.18,2.766,6.18,6.177c0,3.408-2.769,6.174-6.18,6.174  C82.994,56.621,80.225,53.855,80.225,50.447z"/><path d="M43.874,50.447c0-3.411,2.768-6.177,6.179-6.177s6.174,2.766,6.174,6.177c0,3.408-2.763,6.174-6.174,6.174  S43.874,53.855,43.874,50.447z"/><circle cx="50.05" cy="85.187" r="6.177"/><path d="M43.874,67.817c0-3.412,2.768-6.178,6.179-6.178s6.174,2.766,6.174,6.178c0,3.411-2.763,6.176-6.174,6.176  S43.874,71.229,43.874,67.817z"/><circle cx="50.05" cy="15.705" r="6.177"/><circle cx="50.05" cy="33.075" r="6.177"/><text x="0" y="115" fill="#000000" font-size="5px" font-weight="bold" font-family="'Helvetica Neue', Helvetica, Arial-Unicode, Arial, Sans-serif">Created by Dominique Vicent</text><text x="0" y="120" fill="#000000" font-size="5px" font-weight="bold" font-family="'Helvetica Neue', Helvetica, Arial-Unicode, Arial, Sans-serif">from the Noun Project</text></svg>