<svg xmlns="http://www.w3.org/2000/svg" xmlns:xlink="http://www.w3.org/1999/xlink" version="1.1" x="0px" y="0px" viewBox="0 0 100 125" enable-background="new 0 0 100 100" xml:space="preserve"><g><circle cx="69.286" cy="50" r="6.428"/><path d="M56.429,50c0,3.55-2.879,6.429-6.429,6.429c-3.547,0-6.429-2.879-6.429-6.429c0-3.55,2.882-6.429,6.429-6.429   C53.55,43.571,56.429,46.45,56.429,50z"/><path d="M56.429,69.286c0,3.55-2.879,6.428-6.429,6.428c-3.547,0-6.429-2.878-6.429-6.428c0-3.551,2.882-6.429,6.429-6.429   C53.55,62.857,56.429,65.735,56.429,69.286z"/><path d="M56.429,30.714c0,3.55-2.879,6.429-6.429,6.429c-3.547,0-6.429-2.878-6.429-6.429s2.882-6.429,6.429-6.429   C53.55,24.286,56.429,27.164,56.429,30.714z"/><path d="M37.143,50c0,3.55-2.878,6.429-6.429,6.429c-3.547,0-6.429-2.879-6.429-6.429c0-3.55,2.882-6.429,6.429-6.429   C34.265,43.571,37.143,46.45,37.143,50z"/><path d="M37.143,69.286c0,3.55-2.878,6.428-6.429,6.428c-3.547,0-6.429-2.878-6.429-6.428c0-3.551,2.882-6.429,6.429-6.429   C34.265,62.857,37.143,65.735,37.143,69.286z"/><path d="M37.143,30.714c0,3.55-2.878,6.429-6.429,6.429c-3.547,0-6.429-2.878-6.429-6.429s2.882-6.429,6.429-6.429   C34.265,24.286,37.143,27.164,37.143,30.714z"/><path d="M37.143,88.571c0,3.55-2.878,6.429-6.429,6.429c-3.547,0-6.429-2.879-6.429-6.429s2.882-6.429,6.429-6.429   C34.265,82.143,37.143,85.021,37.143,88.571z"/><path d="M37.143,11.429c0,3.55-2.878,6.428-6.429,6.428c-3.547,0-6.429-2.878-6.429-6.428c0-3.55,2.882-6.429,6.429-6.429   C34.265,5,37.143,7.878,37.143,11.429z"/></g><text x="0" y="115" fill="#000000" font-size="5px" font-weight="bold" font-family="'Helvetica Neue', Helvetica, Arial-Unicode, Arial, Sans-serif">Created by TukTuk Design</text><text x="0" y="120" fill="#000000" font-size="5px" font-weight="bold" font-family="'Helvetica Neue', Helvetica, Arial-Unicode, Arial, Sans-serif">from the Noun Project</text></svg>