<svg xmlns="http://www.w3.org/2000/svg" xmlns:xlink="http://www.w3.org/1999/xlink" version="1.1" x="0px" y="0px" viewBox="0 0 100 125" enable-background="new 0 0 100 100" xml:space="preserve"><g><circle cx="50" cy="30.715" r="6.428"/><path d="M50,43.572c3.55,0,6.429,2.879,6.429,6.429c0,3.547-2.879,6.429-6.429,6.429c-3.55,0-6.429-2.882-6.429-6.429   C43.571,46.451,46.45,43.572,50,43.572z"/><path d="M69.286,43.572c3.55,0,6.428,2.879,6.428,6.429c0,3.547-2.878,6.429-6.428,6.429c-3.551,0-6.429-2.882-6.429-6.429   C62.857,46.451,65.735,43.572,69.286,43.572z"/><path d="M30.714,43.572c3.55,0,6.429,2.879,6.429,6.429c0,3.547-2.879,6.429-6.429,6.429c-3.551,0-6.429-2.882-6.429-6.429   C24.286,46.451,27.164,43.572,30.714,43.572z"/><path d="M50,62.857c3.55,0,6.429,2.879,6.429,6.429c0,3.547-2.879,6.429-6.429,6.429c-3.55,0-6.429-2.882-6.429-6.429   C43.571,65.735,46.45,62.857,50,62.857z"/><path d="M69.286,62.857c3.55,0,6.428,2.879,6.428,6.429c0,3.547-2.878,6.429-6.428,6.429c-3.551,0-6.429-2.882-6.429-6.429   C62.857,65.736,65.735,62.857,69.286,62.857z"/><path d="M30.714,62.857c3.55,0,6.429,2.878,6.429,6.429c0,3.547-2.879,6.429-6.429,6.429c-3.551,0-6.43-2.882-6.43-6.429   C24.285,65.735,27.164,62.857,30.714,62.857z"/><path d="M88.571,62.857c3.55,0,6.429,2.879,6.429,6.429c0,3.547-2.879,6.429-6.429,6.429s-6.429-2.882-6.429-6.429   C82.143,65.736,85.021,62.857,88.571,62.857z"/><path d="M11.428,62.857c3.55,0,6.429,2.878,6.429,6.429c0,3.547-2.879,6.429-6.429,6.429S5,72.833,5,69.286   C5,65.735,7.878,62.857,11.428,62.857z"/></g><text x="0" y="115" fill="#000000" font-size="5px" font-weight="bold" font-family="'Helvetica Neue', Helvetica, Arial-Unicode, Arial, Sans-serif">Created by TukTuk Design</text><text x="0" y="120" fill="#000000" font-size="5px" font-weight="bold" font-family="'Helvetica Neue', Helvetica, Arial-Unicode, Arial, Sans-serif">from the Noun Project</text></svg>