<svg xmlns="http://www.w3.org/2000/svg" xmlns:xlink="http://www.w3.org/1999/xlink" version="1.1" x="0px" y="0px" viewBox="0 0 100 125" enable-background="new 0 0 100 100" xml:space="preserve"><g><circle cx="30.714" cy="50" r="6.428"/><path d="M43.571,50c0-3.55,2.879-6.429,6.429-6.429c3.547,0,6.429,2.879,6.429,6.429S53.547,56.429,50,56.429   C46.45,56.429,43.571,53.55,43.571,50z"/><path d="M43.571,30.714c0-3.55,2.879-6.428,6.429-6.428c3.547,0,6.429,2.878,6.429,6.428c0,3.551-2.882,6.429-6.429,6.429   C46.45,37.143,43.571,34.265,43.571,30.714z"/><path d="M43.571,69.285c0-3.55,2.879-6.429,6.429-6.429c3.547,0,6.429,2.879,6.429,6.429c0,3.551-2.882,6.429-6.429,6.429   C46.45,75.714,43.571,72.836,43.571,69.285z"/><path d="M62.856,50c0-3.55,2.879-6.429,6.429-6.429c3.547,0,6.429,2.879,6.429,6.429s-2.882,6.429-6.429,6.429   C65.734,56.429,62.856,53.55,62.856,50z"/><path d="M62.856,30.714c0-3.55,2.879-6.428,6.429-6.428c3.547,0,6.429,2.878,6.429,6.428c0,3.551-2.882,6.429-6.429,6.429   C65.735,37.143,62.856,34.265,62.856,30.714z"/><path d="M62.856,69.285c0-3.55,2.878-6.429,6.429-6.429c3.547,0,6.429,2.879,6.429,6.429c0,3.551-2.882,6.43-6.429,6.43   C65.734,75.715,62.856,72.836,62.856,69.285z"/><path d="M62.856,11.429c0-3.55,2.879-6.429,6.429-6.429c3.547,0,6.429,2.879,6.429,6.429s-2.882,6.429-6.429,6.429   C65.735,17.857,62.856,14.979,62.856,11.429z"/><path d="M62.856,88.571c0-3.55,2.878-6.429,6.429-6.429c3.547,0,6.429,2.879,6.429,6.429S72.832,95,69.285,95   C65.734,95,62.856,92.121,62.856,88.571z"/></g><text x="0" y="115" fill="#000000" font-size="5px" font-weight="bold" font-family="'Helvetica Neue', Helvetica, Arial-Unicode, Arial, Sans-serif">Created by TukTuk Design</text><text x="0" y="120" fill="#000000" font-size="5px" font-weight="bold" font-family="'Helvetica Neue', Helvetica, Arial-Unicode, Arial, Sans-serif">from the Noun Project</text></svg>