<svg xmlns="http://www.w3.org/2000/svg" xmlns:xlink="http://www.w3.org/1999/xlink" version="1.1" x="0px" y="0px" viewBox="0 0 48 60" enable-background="new 0 0 48 48" xml:space="preserve"><g><path d="M38.788,12.844c-2.003,0-3.632-1.629-3.632-3.632s1.629-3.632,3.632-3.632s3.632,1.629,3.632,3.632   S40.791,12.844,38.788,12.844z M38.788,7.58c-0.899,0-1.632,0.732-1.632,1.632s0.732,1.632,1.632,1.632s1.632-0.732,1.632-1.632   S39.688,7.58,38.788,7.58z"/><path d="M12.93,48c-0.327,0-0.635-0.16-0.823-0.432c-0.128-0.186-2.906-4.26-2.884-8.793c-0.017,0.001-0.035,0.001-0.052,0.001   c-4.518,0-8.57-2.768-8.74-2.886c-0.297-0.205-0.46-0.555-0.427-0.915c0.033-0.359,0.258-0.673,0.587-0.82l11.042-4.935   c0.907-3.692,2.019-7.085,3.312-10.111l-5.548-0.693c-0.324-0.041-0.607-0.236-0.76-0.525c-0.152-0.289-0.154-0.633-0.005-0.924   c0.608-1.186,6.07-11.643,10.521-13.68c2.117-0.97,4.494-0.563,6.731,1.15C30.951,0.785,36.132,0,39.646,0   c3.947,0,6.647,0.948,6.76,0.988c0.282,0.101,0.505,0.323,0.605,0.605c0.157,0.439,3.68,10.651-3.449,20.523   c1.713,2.236,2.124,4.602,1.149,6.73c-2.039,4.451-12.495,9.912-13.681,10.521c-0.289,0.148-0.635,0.146-0.924-0.006   c-0.288-0.152-0.484-0.436-0.524-0.76l-0.693-5.548c-3.023,1.292-6.416,2.403-10.11,3.312l-4.937,11.042   c-0.147,0.33-0.461,0.555-0.821,0.588C12.991,47.999,12.96,48,12.93,48z M10.288,36.711c0.264,0,0.519,0.104,0.707,0.293   c0.217,0.217,0.322,0.521,0.286,0.825c-0.315,2.644,0.713,5.319,1.538,6.969l4.334-9.696c0.127-0.283,0.378-0.492,0.68-0.564   c4.273-1.022,8.13-2.318,11.463-3.85c0.289-0.134,0.626-0.121,0.904,0.034s0.467,0.434,0.506,0.75l0.681,5.441   c3.622-1.988,10.197-6.041,11.506-8.897c0.737-1.612,0.283-3.363-1.35-5.204c-0.318-0.359-0.337-0.894-0.044-1.274   c6.208-8.05,4.344-16.729,3.769-18.807C44.387,2.483,42.322,2,39.646,2c-4.876,0-9.312,1.514-13.185,4.5   c-0.378,0.293-0.914,0.274-1.273-0.043c-0.872-0.772-2.218-1.693-3.679-1.693c-0.516,0-1.029,0.115-1.525,0.343   c-2.859,1.309-6.911,7.883-8.898,11.506l5.443,0.68c0.316,0.04,0.595,0.228,0.75,0.506c0.155,0.278,0.167,0.614,0.035,0.904   c-1.534,3.338-2.83,7.195-3.852,11.464c-0.072,0.303-0.281,0.554-0.564,0.681l-9.693,4.332c1.652,0.825,4.319,1.858,6.965,1.539   C10.209,36.713,10.249,36.711,10.288,36.711z"/></g><text x="0" y="63" fill="#000000" font-size="5px" font-weight="bold" font-family="'Helvetica Neue', Helvetica, Arial-Unicode, Arial, Sans-serif">Created by Creative Stall</text><text x="0" y="68" fill="#000000" font-size="5px" font-weight="bold" font-family="'Helvetica Neue', Helvetica, Arial-Unicode, Arial, Sans-serif">from the Noun Project</text></svg>