<svg xmlns="http://www.w3.org/2000/svg" xmlns:xlink="http://www.w3.org/1999/xlink" version="1.1" x="0px" y="0px" viewBox="0 0 100 125" enable-background="new 0 0 100 100" xml:space="preserve"><g><path d="M79.59,27.797c-0.575-1.362-1.06-2.459-1.06-2.459s-1.21,0.004-2.688,0.004h-20.07c-1.472,0-2.683-1.215-2.683-2.697   v-8.712c0-1.476-1.206-2.683-2.687-2.683h-0.878c-1.478,0-2.688,1.207-2.688,2.683v8.712c0,1.482-1.201,2.697-2.683,2.697H24.094   c-1.481,0-2.688-0.004-2.688-0.004l0,0v0.004c0,0-0.475,1.097-1.068,2.46L0.643,73.83c-0.584,1.362-0.323,3.434,0.583,4.601   c0,0,8.129,10.536,20.18,10.536c12.051,0,20.179-10.536,20.179-10.536c0.898-1.167,1.169-3.238,0.59-4.601L24.136,31.7   c-0.584-1.354,0.152-2.468,1.633-2.468h48.407c1.469,0,2.208,1.115,1.623,2.468L57.763,73.83c-0.57,1.362-0.313,3.434,0.589,4.601   c0,0,8.128,10.536,20.179,10.536c12.052,0,20.181-10.536,20.181-10.536c0.896-1.167,1.162-3.238,0.583-4.601L79.59,27.797z    M7.761,74.13c-1.477,0-2.213-1.116-1.624-2.476l14.201-33.227c0.594-1.343,1.534-1.343,2.123,0l14.226,33.227   c0.574,1.359-0.156,2.476-1.633,2.476H7.761z M64.814,74.211c-1.481,0-2.213-1.112-1.63-2.47l14.293-33.394   c0.573-1.358,1.537-1.358,2.112,0l14.283,33.394c0.588,1.357-0.147,2.47-1.625,2.47H64.814z"/></g></svg>