<svg xmlns="http://www.w3.org/2000/svg" xmlns:xlink="http://www.w3.org/1999/xlink" version="1.1" x="0px" y="0px" viewBox="0 0 100 125" enable-background="new 0 0 100 100" xml:space="preserve"><g><path d="M85.9,44.9h-1.1v-8.1c0-3-2.5-5.5-5.5-5.5H24.6c-0.9,0-1.8-1.1-1.8-2.2v-0.4c0-1,0.8-1.8,1.8-1.8h51c1,0,1.8,0.8,1.8,1.8   c0,1,0.8,1.8,1.8,1.8c1,0,1.8-0.8,1.8-1.8c0-3-2.5-5.5-5.5-5.5h-51c-3,0-5.5,2.5-5.5,5.5V29v45.9c0,3,2.5,5.5,5.5,5.5h54.5   c3,0,5.5-2.5,5.5-5.5V64.3h1.1c1,0,1.8-0.8,1.8-1.8V46.7C87.7,45.7,86.9,44.9,85.9,44.9z M67.4,60.7c-3.2,0-5.8-2.7-5.8-6.1   c0-3.3,2.6-6.1,5.8-6.1H84v12.1H67.4z M81,74.9c0,1-0.8,1.8-1.8,1.8H24.7c-1,0-1.8-0.8-1.8-1.8v-40h56.4c1,0,1.8,0.8,1.8,1.8v8.1   H67.4c-5.2,0-9.5,4.4-9.5,9.7c0,5.4,4.2,9.7,9.5,9.7H81V74.9z"/><circle cx="68" cy="54.6" r="3.3"/></g><text x="0" y="115" fill="#000000" font-size="5px" font-weight="bold" font-family="'Helvetica Neue', Helvetica, Arial-Unicode, Arial, Sans-serif">Created by Siddharth Dasari</text><text x="0" y="120" fill="#000000" font-size="5px" font-weight="bold" font-family="'Helvetica Neue', Helvetica, Arial-Unicode, Arial, Sans-serif">from the Noun Project</text></svg>