<svg id="Layer_1" data-name="Layer 1" xmlns="http://www.w3.org/2000/svg" viewBox="0 0 86.64 86.22"><defs><style>.cls-1{fill:#1d1d1b;}</style></defs><title>printer shape</title><path class="cls-1" d="M57.71,22.67H69.24L57.88,11.46l-0.18.13V22.67ZM83.05,50.83H11.27c-0.93,0-.92,0-0.92,1q0,4.25,0,8.5c0,2.81,0,5.62,0,8.43,0,1.19.59,2.22,2.05,2a10.5,10.5,0,0,1,1.3,0h4V59H75.89V70.76h6a1,1,0,0,0,.36-0.16,1.64,1.64,0,0,0,.8-1.7q0-8.6,0-17.2V50.83ZM53.56,11H23.16V38.27H69.63a0.62,0.62,0,0,0,.78-0.77q0-4.9,0-9.8a0.72,0.72,0,0,0-.89-0.89c-5,0-10.09,0-15.14,0-0.26,0-.52,0-0.82,0V11ZM23.14,86.31l0.59,0q22.92,0,45.83,0a0.7,0.7,0,0,0,.85-0.86q0-10.14,0-20.28a0.72,0.72,0,0,0-.9-0.88q-22.81,0-45.63,0H23.14v22ZM3.52,70.48V43.75a0.86,0.86,0,0,0,.27-0.23c0.15-.36.26-0.73,0.38-1.1,0.58-1.77,2.06-2.68,3.57-3.4A7.94,7.94,0,0,1,12,38.26a16.38,16.38,0,0,0,1.67,0c0-2.51,0-4.86,0-7.21a4.27,4.27,0,0,1,1.07-2.48,6.08,6.08,0,0,1,3-1.89V26.19q0-10.07,0-20.14c0-.18,0-0.36,0-0.55h40.3a1.68,1.68,0,0,0,.22.38l6.71,6.68L69,16.64c1.1,1.1,2.18,2.21,3.29,3.3,0.83,0.81,1.68,1.61,2.55,2.37a2.49,2.49,0,0,1,1.09,2.39,11.27,11.27,0,0,0,0,1.82,17.34,17.34,0,0,1,2.58,1.66A4.3,4.3,0,0,1,80,31.47c0,2,0,4.06,0,6.1,0,0.22,0,.44,0,0.67l0.33,0c1.38,0.13,2.77-.19,4.17.31A12,12,0,0,1,87,39.68a5.31,5.31,0,0,1,2.81,3.93,1.54,1.54,0,0,0,.35.55V70.07a1.29,1.29,0,0,0-.35.51,5.73,5.73,0,0,1-.7,2.45,7.66,7.66,0,0,1-4,3.82,9.07,9.07,0,0,1-4,.74c-1.5-.07-3,0-4.52,0-0.2,0-.39,0-0.66,0v14.1H17.65V77.61l-0.37,0c-2.52-.18-5.07.34-7.59-0.35a8.23,8.23,0,0,1-3.12-1.54A7.33,7.33,0,0,1,3.8,70.86a1.1,1.1,0,0,0-.29-0.38" transform="translate(-3.52 -5.5)"/></svg>