<svg xmlns="http://www.w3.org/2000/svg" xmlns:xlink="http://www.w3.org/1999/xlink" version="1.1" x="0px" y="0px" viewBox="0 0 100 125" enable-background="new 0 0 100 100" xml:space="preserve"><g><path d="M50,19.969c-7.238,0-13.127,5.889-13.127,13.126c0,3.861,1.699,7.512,4.658,10.019c0.096,0.08,0.188,0.164,0.275,0.25   c3.232,2.867,5.223,6.865,5.607,11.113h5.172c0.385-4.25,2.375-8.247,5.607-11.113c0.088-0.086,0.18-0.17,0.275-0.25   c2.959-2.507,4.658-6.157,4.658-10.019C63.127,25.858,57.238,19.969,50,19.969z"/><path d="M94,6H6c-3.313,0-6,2.687-6,6v57c0,3.313,2.687,6,6,6h14v25l25-25h49c3.313,0,6-2.687,6-6V12C100,8.687,97.313,6,94,6z    M61.68,46.907h0.014c-2.932,2.482-4.482,6.227-4.166,10.053h0.025v2.487h-0.049c0.029,0.279,0.049,0.56,0.049,0.84   C57.553,64.459,52.412,67,50,67s-7.553-2.541-7.553-6.713c0-0.28,0.021-0.561,0.051-0.84h-0.025V56.96   c0.316-3.826-1.234-7.571-4.166-10.053h0.014c-3.92-3.32-6.416-8.271-6.416-13.811C31.904,23.103,40.006,15,50,15   s18.096,8.103,18.096,18.096C68.096,38.636,65.6,43.587,61.68,46.907z"/></g></svg>