<?xml version="1.0" encoding="utf-8"?>
<!-- Generator: Adobe Illustrator 19.0.0, SVG Export Plug-In . SVG Version: 6.00 Build 0)  -->
<svg version="1.1" id="Layer_2" xmlns="http://www.w3.org/2000/svg" xmlns:xlink="http://www.w3.org/1999/xlink" x="0px" y="0px"
	 viewBox="-427.9 227 97.8 78.3" style="enable-background:new -427.9 227 97.8 78.3;" xml:space="preserve">
<style type="text/css">
	.st0{display:none;}
	.st1{display:inline;}
	.st2{fill:none;stroke:#000000;stroke-width:2;stroke-miterlimit:10;}
</style>
<g>
	<g>
		<g>
			<path d="M-343.8,286.6c-1.4,0.6-2.9,1-4.4,1.3c-0.2,0.7-0.6,1.4-1.3,2c-1.9,1.9-4.3,3.1-6.9,3.7c-0.5,0.4-1.1,0.8-1.8,0.9
				c-1.7,0.4-3.7,0.6-5.5,0.2C-361.6,310.8-342.1,307.6-343.8,286.6z"/>
		</g>
		<g>
			<path d="M-354.6,305.4c-4.2,0-8.6-3.2-9.6-10.6l-0.1-0.7l0.7,0.1c1.9,0.4,3.9,0.1,5.3-0.2c0.6-0.1,1.1-0.4,1.6-0.8l0.2-0.1
				c2.7-0.7,5-1.9,6.7-3.6c0.5-0.5,0.9-1.2,1.1-1.8l0.1-0.3l0.3,0c1.5-0.2,2.9-0.7,4.3-1.2l0.6-0.3l0.1,0.7
				c0.9,11.5-4.5,18.2-10.4,18.8C-354,305.4-354.3,305.4-354.6,305.4z M-363.1,295.3c1.1,6.8,5.4,9.4,9.2,9c5.3-0.6,10.2-6.6,9.6-17
				c-1.1,0.4-2.3,0.8-3.6,1c-0.3,0.7-0.7,1.4-1.3,1.9c-1.8,1.8-4.2,3.1-7,3.8c-0.6,0.5-1.2,0.8-1.9,0.9
				C-359.4,295.3-361.2,295.6-363.1,295.3z"/>
		</g>
	</g>
	<g class="st0">
		<g class="st1">
			<path class="st2" d="M-411.8,281.6"/>
		</g>
	</g>
	<g class="st0">
		<g class="st1">
			<path class="st2" d="M-419.3,251.6"/>
		</g>
	</g>
	<g class="st0">
		<g class="st1">
			<path d="M-386.5,294.8c-1.2-0.8-2.2-1.7-3.1-2.7l-3.2-0.7c-2.6,0.9-5.3,0.8-8.1,0.9c-0.4,13.4,13.7,18.1,18.2,4.1
				C-384.1,296.1-385.4,295.6-386.5,294.8z"/>
		</g>
		<g class="st1">
			<path d="M-391.9,305.4c-0.4,0-0.9,0-1.3-0.1c-4.3-0.8-8.6-5.4-8.4-13l0-0.5l1.1,0c2.6,0,5-0.1,7.4-0.8l0.1,0l3.5,0.7l0.1,0.1
				c1,1,2,1.9,3.1,2.6h0c1,0.7,2.1,1.2,3.5,1.5l0.5,0.1l-0.2,0.5C-384.5,303.1-388.5,305.4-391.9,305.4z M-400.5,292.8
				c0,6.7,3.7,10.8,7.5,11.5c3.2,0.5,7.3-1.2,9.5-7.5c-1.3-0.4-2.4-0.9-3.3-1.5h0c-1.1-0.7-2.1-1.6-3.1-2.7l-3-0.6
				c-2.4,0.8-4.9,0.8-7.5,0.8L-400.5,292.8z"/>
		</g>
	</g>
	<g>
		<g>
			<path d="M-419.3,249.3c-19.3,21.2-1.6,36.1,9.4,32.3c9.4-4.2,10.4-8.5,14.1-13.9c-1.9-2.1-7.5-5.9-1.9-9
				c-5.6,1.3-9.4-0.6-9.4-7.1C-414.3,252.5-413,253-419.3,249.3z"/>
		</g>
	</g>
	<g>
		<g>
			<path d="M-380.4,297.1c-6.1,0-9.5-3.4-11.1-5c0,0,0,0,0,0c-6.6,2.2-11.6,2.1-15-0.3c-3.8-2.7-4.4-7.6-4.4-10.2v-0.7l0.6-0.3
				c7.1-2.8,8.5-5.6,10.5-9.4c0.4-0.9,0.9-1.7,1.4-2.7c-1.3-1.8-3.2-5.1-2.3-8.5c-4.4-0.5-7.1-3.1-7.5-7.3c-9.3,1.1-12.3-2.6-13.2-5
				c-1.6-4.1,0.6-9.9,5-12.9c3.5-2.4,7.5-2.3,10.9,0.3c3.3-5.1,7.1-6.2,9.8-6.1c3.5,0,6.7,2,8.5,4.1c4.3-5.5,9.2-6.3,12.6-6
				c5,0.4,9.7,3.6,11.6,6.2c6.5-4.7,13.6-2.7,17.8,0.6c4.6,3.5,6.6,8.8,5.3,13.2c6.8,1.4,9.5,6.6,9.7,11.1c0.2,4.8-2,9.1-5.5,10.7
				c2.6,3.8,2.6,8.2,0.1,12.3c-2.9,4.7-8.6,7.7-13.2,7.1c-3,5.2-7.3,6.9-10.3,7.4c-4.2,0.7-8.4-0.5-10.3-1.7
				C-373.8,296.3-377.4,297.1-380.4,297.1z M-391,289.8l0.4,0.4c0.1,0.1,0.3,0.3,0.5,0.5c2.4,2.4,8,7.9,20.4,1.3l0.6-0.3l0.5,0.5
				c0.8,0.8,4.8,2.4,9.2,1.7c4-0.7,7.1-3,9.3-7l0.4-0.7l0.7,0.2c3.9,0.9,9.2-1.8,11.8-6c1.3-2.2,3-6.5-0.8-11.1l-1-1.2l1.6-0.4
				c3.2-0.8,5.5-4.8,5.3-9.2c-0.1-1.9-1-8.3-9.2-9.4l-1.3-0.2l0.6-1.2c1.7-3.7,0-8.7-4.3-12c-4-3.1-10.4-4.7-16.2,0.1l-1,0.8
				l-0.5-1.2c-0.9-1.8-5.4-5.7-10.6-6.1c-4.5-0.4-8.5,1.7-11.6,6.3l-0.9,1.3l-0.8-1.4c-0.9-1.7-4-4.2-7.6-4.3c0,0-0.1,0-0.1,0
				c-3.3,0-6.3,2.1-8.6,6.1l-0.6,1.1l-0.9-0.8c-3.9-3.6-7.6-2.1-9.4-0.9c-3.6,2.4-5.5,7.3-4.2,10.5c1.3,3.3,5.6,4.6,12.1,3.6
				l1.1-0.2v1.2c0,2.4,0.9,6.5,7,6.5h1.7l-0.8,1.5c-1.7,3.1,0.6,6.4,1.8,8.2l0.5,0.7l-0.3,0.6c-0.7,1.1-1.2,2.1-1.7,3.1
				c-2,3.9-3.6,7.1-10.9,10.1c0.1,2.3,0.7,5.9,3.5,7.9c2.9,2.1,7.6,2,13.8-0.2L-391,289.8z"/>
		</g>
	</g>
</g>
</svg>
