<?xml version="1.0" encoding="utf-8"?>
<!-- Generator: Adobe Illustrator 19.0.0, SVG Export Plug-In . SVG Version: 6.00 Build 0)  -->
<svg version="1.1" id="Layer_1" xmlns="http://www.w3.org/2000/svg" xmlns:xlink="http://www.w3.org/1999/xlink" x="0px" y="0px"
	 viewBox="-253.9 343 97.8 78.3" style="enable-background:new -253.9 343 97.8 78.3;" xml:space="preserve">
<path d="M-156.2,374.2c-0.2-4.5-2.9-9.7-9.7-11.1c1.3-4.4-0.7-9.6-5.3-13.2c-4.2-3.3-11.3-5.3-17.8-0.6c-1.9-2.6-6.6-5.8-11.6-6.2
	c-3.4-0.3-8.3,0.5-12.6,6c-1.8-2.1-5-4-8.5-4.1c-2.7,0-6.5,1-9.8,6.1c-3.4-2.6-7.4-2.7-10.9-0.3c-4.4,3-6.6,8.8-5,12.9
	c0.3,0.7,0.7,1.5,1.4,2.3c-17.7,20.2-1.9,34.4,9,31.9c0,2.7,0.7,7.3,4.4,9.9c1.4,1,3.1,1.6,5,1.8c0.3,6.8,4.3,11,8.4,11.7
	c0.4,0.1,0.9,0.1,1.3,0.1c3.3,0,7.2-2.2,9.4-8.4c0.7,0.1,1.3,0.1,2.1,0.1c3,0,6.6-0.8,11.1-3.1c1.1,0.7,3.1,1.5,5.4,1.8
	c1.2,6.7,5.4,9.6,9.4,9.6c0.3,0,0.6,0,0.9,0c5.7-0.6,11-6.9,10.5-17.7c3-1.1,5.9-3.4,7.7-6.4c2.5-4.1,2.4-8.5-0.1-12.3
	C-158.2,383.3-156,379-156.2,374.2z M-163.5,383.5l-1.6,0.4l1,1.2c3.8,4.6,2.1,8.9,0.8,11.1c-2.6,4.2-7.9,7-11.8,6l-0.7-0.2
	l-0.4,0.7c-2.1,4-5.3,6.4-9.3,7c-4.4,0.7-8.3-0.9-9.2-1.7l-0.5-0.5l-0.6,0.3c-12.4,6.6-18,1.1-20.4-1.3c-0.2-0.2-0.3-0.3-0.5-0.5
	l-0.4-0.4l-0.6,0.2c-6.2,2.2-10.9,2.2-13.8,0.2c-2.8-2-3.5-5.6-3.5-7.9c7.3-3,8.9-6.2,10.9-10.1c0.5-1,1-2,1.7-3.1l0.3-0.6l-0.1-0.2
	c0.1-0.2,0.2-0.4,0.4-0.5c-0.5-0.6-1.2-1.2-2-2c-1-1.8-1.7-4-0.6-6.2l0.4-0.7c0.1-0.1,0.2-0.1,0.3-0.2c-0.1,0-0.1,0-0.2,0l0.3-0.6
	h-1.7c-6.1,0-7-4.1-7-6.5v-1.2l-1.1,0.2c-6.5,1-10.8-0.3-12.1-3.6c-1.3-3.3,0.7-8.1,4.2-10.5c1.8-1.2,5.4-2.8,9.4,0.9l0.9,0.8
	l0.6-1.1c2.3-4,5.3-6.1,8.6-6.1c0,0,0.1,0,0.1,0c3.6,0,6.6,2.6,7.6,4.3l0.8,1.4l0.9-1.3c3.2-4.6,7.1-6.7,11.6-6.3
	c5.3,0.5,9.8,4.3,10.6,6.1l0.5,1.2l1-0.8c5.8-4.8,12.2-3.2,16.2-0.1c4.3,3.3,6,8.2,4.3,12l-0.6,1.2l1.3,0.2c8.2,1.1,9.1,7.5,9.2,9.4
	C-158,378.7-160.3,382.7-163.5,383.5z"/>
</svg>
