<?xml version="1.0" standalone="no"?>
<!DOCTYPE svg PUBLIC "-//W3C//DTD SVG 20010904//EN"
 "http://www.w3.org/TR/2001/REC-SVG-20010904/DTD/svg10.dtd">
<svg version="1.0" xmlns="http://www.w3.org/2000/svg"
 width="1024.000000pt" height="1024.000000pt" viewBox="0 0 1024.000000 1024.000000"
 preserveAspectRatio="xMidYMid meet">
<metadata>
Created by potrace 1.11, written by Peter Selinger 2001-2013
</metadata>
<g transform="translate(0.000000,1024.000000) scale(0.100000,-0.100000)"
fill="#000000" stroke="none">
<path d="M6471 8838 c-40 -123 -400 -1229 -800 -2458 l-727 -2235 -247 -3
-247 -2 0 -250 0 -250 795 0 795 0 0 250 0 250 -261 0 c-205 0 -260 3 -257 13
2 6 107 342 233 745 l229 732 826 0 826 0 239 -732 c131 -403 241 -739 243
-745 3 -10 -50 -13 -242 -13 l-246 0 0 -250 0 -250 795 0 795 0 0 250 0 250
-232 2 -232 3 -475 1435 c-262 789 -628 1895 -815 2458 l-338 1022 -292 0
-292 0 -73 -222z m669 -1666 l336 -1037 -665 -3 c-365 -1 -666 0 -669 3 -4 4
607 1966 639 2053 5 12 12 22 16 22 5 0 159 -467 343 -1038z"/>
<path d="M1200 8760 l0 -250 295 0 295 0 0 -2185 0 -2185 -295 0 -295 0 0
-250 0 -250 945 0 945 0 0 250 0 250 -350 0 -350 0 0 840 0 840 328 0 c180 0
379 5 442 11 459 42 831 191 1087 433 292 276 439 646 459 1158 22 549 -140
986 -461 1244 -203 164 -444 261 -784 316 -133 22 -160 22 -1198 25 l-1063 4
0 -251z m1925 -260 c335 -28 565 -111 715 -261 107 -106 176 -262 216 -484 24
-136 24 -460 1 -597 -40 -230 -118 -399 -242 -524 -94 -94 -167 -144 -287
-196 -207 -89 -341 -109 -785 -115 l-353 -5 0 1096 0 1096 304 0 c166 0 361
-5 431 -10z"/>
<path d="M1695 2161 c-188 -54 -341 -210 -390 -398 -88 -338 182 -683 535
-683 248 0 472 175 535 417 74 285 -110 592 -401 667 -79 21 -203 19 -279 -3z"/>
<path d="M3935 2161 c-188 -54 -341 -210 -390 -398 -88 -338 182 -683 535
-683 248 0 472 175 535 417 74 285 -110 592 -401 667 -79 21 -203 19 -279 -3z"/>
<path d="M6188 2164 c-141 -34 -292 -153 -357 -281 -110 -219 -70 -466 103
-639 220 -220 552 -220 772 0 173 173 213 420 103 639 -42 82 -154 194 -236
236 -117 59 -261 76 -385 45z"/>
<path d="M8428 2164 c-141 -34 -292 -153 -357 -281 -110 -219 -70 -466 103
-639 220 -220 552 -220 772 0 173 173 213 420 103 639 -42 82 -154 194 -236
236 -117 59 -261 76 -385 45z"/>
</g>
</svg>
